<svg width="53" height="22" viewBox="0 0 53 22" fill="none" xmlns="http://www.w3.org/2000/svg">
<path d="M3.725 6.80008L11 11.0084L18.275 6.80008M11 19.4001V11.0001M18.5 14.3334V7.66675C18.4997 7.37448 18.4225 7.08742 18.2763 6.83438C18.13 6.58134 17.9198 6.37122 17.6667 6.22508L11.8333 2.89175C11.58 2.74547 11.2926 2.66846 11 2.66846C10.7074 2.66846 10.42 2.74547 10.1667 2.89175L4.33333 6.22508C4.08022 6.37122 3.86998 6.58134 3.72372 6.83438C3.57745 7.08742 3.5003 7.37448 3.5 7.66675V14.3334C3.5003 14.6257 3.57745 14.9127 3.72372 15.1658C3.86998 15.4188 4.08022 15.6289 4.33333 15.7751L10.1667 19.1084C10.42 19.2547 10.7074 19.3317 11 19.3317C11.2926 19.3317 11.58 19.2547 11.8333 19.1084L17.6667 15.7751C17.9198 15.6289 18.13 15.4188 18.2763 15.1658C18.4225 14.9127 18.4997 14.6257 18.5 14.3334Z" stroke="#EBEDF2" stroke-width="1.5" stroke-linecap="round" stroke-linejoin="round"/>
<path d="M3.725 6.80008L11 11.0084L18.275 6.80008M11 19.4001V11.0001M18.5 14.3334V7.66675C18.4997 7.37448 18.4225 7.08742 18.2763 6.83438C18.13 6.58134 17.9198 6.37122 17.6667 6.22508L11.8333 2.89175C11.58 2.74547 11.2926 2.66846 11 2.66846C10.7074 2.66846 10.42 2.74547 10.1667 2.89175L4.33333 6.22508C4.08022 6.37122 3.86998 6.58134 3.72372 6.83438C3.57745 7.08742 3.5003 7.37448 3.5 7.66675V14.3334C3.5003 14.6257 3.57745 14.9127 3.72372 15.1658C3.86998 15.4188 4.08022 15.6289 4.33333 15.7751L10.1667 19.1084C10.42 19.2547 10.7074 19.3317 11 19.3317C11.2926 19.3317 11.58 19.2547 11.8333 19.1084L17.6667 15.7751C17.9198 15.6289 18.13 15.4188 18.2763 15.1658C18.4225 14.9127 18.4997 14.6257 18.5 14.3334Z" stroke="url(#paint0_linear_19_160)" stroke-width="1.5" stroke-linecap="round" stroke-linejoin="round"/>
<path d="M24.464 8.104C24.464 8.768 24.304 9.252 23.984 9.556C23.664 9.852 23.144 10 22.424 10H21.008V9.1H22.532C22.836 9.1 23.06 9.032 23.204 8.896C23.348 8.752 23.42 8.528 23.42 8.224V6.988C23.42 6.724 23.34 6.516 23.18 6.364C23.02 6.204 22.808 6.124 22.544 6.124H21.38V5.224H22.424C22.672 5.224 22.88 5.144 23.048 4.984C23.216 4.824 23.3 4.612 23.3 4.348V3.364C23.3 3.06 23.228 2.84 23.084 2.704C22.948 2.568 22.728 2.5 22.424 2.5H21.008V1.6H22.28C22.96 1.6 23.472 1.752 23.816 2.056C24.168 2.352 24.344 2.824 24.344 3.472V4.228C24.344 4.844 24.124 5.308 23.684 5.62C24.204 5.908 24.464 6.4 24.464 7.096V8.104ZM31.0487 8.104C31.0487 8.792 30.8887 9.28 30.5687 9.568C30.2567 9.856 29.7367 10 29.0087 10H26.6567V1.6H28.8647C29.5847 1.6 30.1287 1.748 30.4967 2.044C30.8647 2.332 31.0487 2.808 31.0487 3.472V8.104ZM30.0047 3.364C30.0047 3.1 29.9247 2.892 29.7647 2.74C29.6047 2.58 29.3927 2.5 29.1287 2.5H27.7007V9.1H29.1167C29.4207 9.1 29.6447 9.032 29.7887 8.896C29.9327 8.752 30.0047 8.528 30.0047 8.224V3.364Z" fill="#EBEDF2"/>
<path d="M39.4383 10L37.5663 6.184L37.1343 6.904V10H36.0903V1.6H37.1343V5.224L39.3543 1.6H40.4943L38.2143 5.272L40.6143 10H39.4383ZM46.2086 4.84C46.2086 5.488 46.0366 5.968 45.6926 6.28C45.3486 6.584 44.8406 6.736 44.1686 6.736H43.0406V10H41.9966V1.6H44.1446C44.8246 1.6 45.3366 1.752 45.6806 2.056C46.0326 2.352 46.2086 2.824 46.2086 3.472V4.84ZM45.1646 3.364C45.1646 3.06 45.0926 2.84 44.9486 2.704C44.8126 2.568 44.5926 2.5 44.2886 2.5H43.0406V5.836H44.2886C44.5926 5.836 44.8126 5.768 44.9486 5.632C45.0926 5.488 45.1646 5.264 45.1646 4.96V3.364ZM47.4111 10V9.124H48.2511V2.476H47.4111V1.6H50.1351V2.476H49.2951V9.124H50.1351V10H47.4111Z" fill="#EBEDF2"/>
<path d="M39.4383 10L37.5663 6.184L37.1343 6.904V10H36.0903V1.6H37.1343V5.224L39.3543 1.6H40.4943L38.2143 5.272L40.6143 10H39.4383ZM46.2086 4.84C46.2086 5.488 46.0366 5.968 45.6926 6.28C45.3486 6.584 44.8406 6.736 44.1686 6.736H43.0406V10H41.9966V1.6H44.1446C44.8246 1.6 45.3366 1.752 45.6806 2.056C46.0326 2.352 46.2086 2.824 46.2086 3.472V4.84ZM45.1646 3.364C45.1646 3.06 45.0926 2.84 44.9486 2.704C44.8126 2.568 44.5926 2.5 44.2886 2.5H43.0406V5.836H44.2886C44.5926 5.836 44.8126 5.768 44.9486 5.632C45.0926 5.488 45.1646 5.264 45.1646 4.96V3.364ZM47.4111 10V9.124H48.2511V2.476H47.4111V1.6H50.1351V2.476H49.2951V9.124H50.1351V10H47.4111Z" fill="url(#paint1_linear_19_160)"/>
<path d="M23.6951 19H22.2671L20.6231 10.6H21.6791L22.9991 17.944L24.4271 10.6H25.4591L23.6951 19ZM26.775 11.68V10.6H27.915V11.68H26.775ZM26.835 19V13H27.855V19H26.835ZM31.6964 19C30.9924 19 30.4764 18.852 30.1484 18.556C29.8204 18.252 29.6564 17.76 29.6564 17.08V14.92C29.6564 14.232 29.8044 13.74 30.1004 13.444C30.3964 13.148 30.8884 13 31.5764 13H31.9004C32.4684 13 32.8964 13.16 33.1844 13.48C33.4804 13.792 33.6284 14.252 33.6284 14.86V16.42H30.6764V17.32C30.6764 17.568 30.7524 17.76 30.9044 17.896C31.0564 18.032 31.2804 18.1 31.5764 18.1H33.2444V19H31.6964ZM32.6324 15.52V14.62C32.6324 14.412 32.5644 14.24 32.4284 14.104C32.2924 13.968 32.1204 13.9 31.9124 13.9H31.4564C31.1684 13.9 30.9644 13.968 30.8444 14.104C30.7324 14.232 30.6764 14.424 30.6764 14.68V15.52H32.6324ZM40.6611 19H39.0891L38.3331 15.748L37.5051 19H35.9691L34.7691 13H35.8251L36.7971 18.232L37.8651 14.08H38.8851L39.8811 18.232L40.8531 13H41.8491L40.6611 19ZM45.0909 19C44.3869 19 43.8709 18.852 43.5429 18.556C43.2149 18.252 43.0509 17.76 43.0509 17.08V14.92C43.0509 14.232 43.1989 13.74 43.4949 13.444C43.7909 13.148 44.2829 13 44.9709 13H45.2949C45.8629 13 46.2909 13.16 46.5789 13.48C46.8749 13.792 47.0229 14.252 47.0229 14.86V16.42H44.0709V17.32C44.0709 17.568 44.1469 17.76 44.2989 17.896C44.4509 18.032 44.6749 18.1 44.9709 18.1H46.6389V19H45.0909ZM46.0269 15.52V14.62C46.0269 14.412 45.9589 14.24 45.8229 14.104C45.6869 13.968 45.5149 13.9 45.3069 13.9H44.8509C44.5629 13.9 44.3589 13.968 44.2389 14.104C44.1269 14.232 44.0709 14.424 44.0709 14.68V15.52H46.0269ZM48.7608 13H49.7208V13.324C49.9848 13.108 50.3048 13 50.6808 13H51.5568V13.96H50.5608C50.2968 13.96 50.1008 14.048 49.9728 14.224C49.8448 14.4 49.7808 14.572 49.7808 14.74V19H48.7608V13Z" fill="#EBEDF2"/>
<defs>
<linearGradient id="paint0_linear_19_160" x1="19" y1="-2.5" x2="26.7718" y2="9.21593" gradientUnits="userSpaceOnUse">
<stop stop-color="#EBEDF2" stop-opacity="0.2"/>
<stop offset="0.5" stop-color="#00FFFF" stop-opacity="0.5"/>
<stop offset="1" stop-color="#AACCAA"/>
</linearGradient>
<linearGradient id="paint1_linear_19_160" x1="47.3639" y1="-6.79611" x2="37.6361" y2="18.2961" gradientUnits="userSpaceOnUse">
<stop stop-color="#EBEDF2" stop-opacity="0.2"/>
<stop offset="0.5" stop-color="#00FFFF" stop-opacity="0.5"/>
<stop offset="1" stop-color="#AACCAA"/>
</linearGradient>
</defs>
</svg>
